#!OML:ASF E:\Mandelcareful walks\Project 1\Capture day 1\Session 1\Subject1.ASF
:FULLY-SPECIFIED
:DEGREES
560
root -10.2925 14.9549 0.597683 -295.551 78.5595 -313.416
lowerback 25.977 1.65293 -3.89328
upperback 6.20617 1.29168 -3.72944
thorax -7.4894 0.877943 -2.32031
lowerneck -26.2426 10.5285 4.33347
upperneck 9.57602 15.8326 -16.0589
head 9.00676 6.18681 -3.60884
rclavicle -4.41302e-014 -4.29375e-014
rhumerus -7.72027 4.29254 -88.8342
rradius 78.8558
rwrist -15.0755
rhand -22.3395 -28.9826
rfingers 7.12502
rthumb 4.08096 -58.9233
lclavicle -4.41302e-014 -4.29375e-014
lhumerus 7.72924 -11.2094 77.8173
lradius 69.4191
lwrist 18.1349
lhand -25.7184 -15.567
lfingers 7.12502
lthumb 0.817735 14.4112
rfemur -46.1392 -20.1423 6.22245
rtibia 64.9742
rfoot -30.3514 -12.9773
rtoes -3.91747
lfemur -58.5511 13.2399 -23.2299
ltibia 55.1916
lfoot -10.2638 1.14011
ltoes -16.723
561
root -10.3041 14.9577 0.632787 -294.543 78.6084 -312.37
lowerback 26.0222 1.63783 -3.97508
upperback 6.09536 1.23801 -3.70109
thorax -7.63841 0.851814 -2.23052
lowerneck -25.7793 10.6993 4.49318
upperneck 9.50666 16.0593 -16.307
head 8.9726 6.30275 -3.68542
rclavicle 5.36719e-015 -2.54444e-014
rhumerus -7.95437 4.45107 -88.8066
rradius 78.8768
rwrist -15.1704
rhand -24.0006 -31.1445
rfingers 7.12502
rthumb 2.47673 -61.1098
lclavicle 5.36719e-015 -2.54444e-014
lhumerus 7.4093 -11.1378 77.8858
lradius 69.4773
lwrist 18.1136
lhand -25.6597 -15.6059
lfingers 7.12502
lthumb 0.874439 14.3721
rfemur -46.1749 -20.3289 6.41796
rtibia 64.9238
rfoot -29.8464 -14.0381
rtoes -6.14175
lfemur -58.3778 13.1999 -23.2235
ltibia 54.8007
lfoot -10.0201 1.03966
ltoes -16.3865
562
root -10.3191 14.9658 0.669526 -293.474 78.7175 -311.285
lowerback 26.0718 1.64581 -3.93228
upperback 6.08693 1.25777 -3.69255
thorax -7.67212 0.861243 -2.25421
lowerneck -25.9565 10.8749 4.67995
upperneck 9.6806 16.3214 -16.5552
head 9.134 6.38805 -3.73985
rclavicle -2.3059e-014 5.725e-014
rhumerus -8.02906 4.43003 -88.7335
rradius 79.1336
rwrist -15.2301
rhand -24.0651 -31.8151
rfingers 7.12502
rthumb 2.4145 -61.7812
lclavicle -2.3059e-014 5.725e-014
lhumerus 7.51603 -11.2795 77.9048
lradius 69.3973
lwrist 18.0707
lhand -25.7115 -15.5424
lfingers 7.12502
lthumb 0.824376 14.4358
rfemur -46.2318 -20.6303 6.67689
rtibia 65.002
rfoot -29.6926 -14.5286
rtoes -6.81547
lfemur -58.2342 13.1305 -23.1567
ltibia 54.4055
lfoot -9.71995 0.900373
ltoes -16.3348
563
root -10.3359 14.9753 0.707513 -292.352 78.8423 -310.161
lowerback 26.0472 1.62517 -3.83003
upperback 6.14609 1.2666 -3.71894
thorax -7.59137 0.866016 -2.342
lowerneck -26.105 11.1635 4.91826
upperneck 9.69257 16.7047 -16.8478
head 9.25904 6.54049 -3.79356
rclavicle 1.98785e-015 6.55989e-014
rhumerus -8.38068 4.15513 -88.8599
rradius 79.9751
rwrist -15.0334
rhand -23.7433 -31.8624
rfingers 7.12502
rthumb 2.72522 -61.8247
lclavicle 1.98785e-015 6.55989e-014
lhumerus 7.75211 -11.4511 77.7961
lradius 69.2883
lwrist 18.0902
lhand -25.6196 -15.4826
lfingers 7.12502
lthumb 0.913175 14.4952
rfemur -46.2783 -20.8669 6.89765
rtibia 65.1225
rfoot -29.8537 -14.6271
rtoes -6.86574
lfemur -58.108 13.0289 -23.064
ltibia 54.0272
lfoot -9.69415 0.84863
ltoes -15.6068
564
root -10.3519 14.9808 0.745705 -291.225 78.8854 -309.076
lowerback 25.9329 1.58778 -3.78839
upperback 6.18199 1.23926 -3.75088
thorax -7.49282 0.853434 -2.38682
lowerneck -26.1043 11.4799 5.05708
upperneck 9.68841 17.1435 -17.0701
head 9.34559 6.7299 -3.80104
rclavicle -1.27222e-014 2.10712e-014
rhumerus -8.20048 4.2487 -88.8235
rradius 79.6921
rwrist -15.0052
rhand -23.1684 -30.4057
rfingers 7.12502
rthumb 3.28045 -60.3602
lclavicle -1.27222e-014 2.10712e-014
lhumerus 7.80702 -11.4291 77.7441
lradius 69.2605
lwrist 18.0238
lhand -25.1665 -15.2832
lfingers 7.12502
lthumb 1.35075 14.6922
rfemur -46.389 -20.9891 7.02488
rtibia 65.2318
rfoot -29.9603 -14.8595
rtoes -6.80041
lfemur -58.0402 12.9366 -23.0417
ltibia 53.6837
lfoot -9.71058 0.821583
ltoes -14.7342
565
root -10.3668 14.9864 0.785898 -290.182 78.9379 -308.145
lowerback 25.7336 1.58877 -3.77466
upperback 6.16873 1.25299 -3.75635
thorax -7.40706 0.858459 -2.39741
lowerneck -26.0357 11.8062 5.31553
upperneck 9.77149 17.5949 -17.3915
head 9.47798 6.91644 -3.85722
rclavicle 2.50469e-014 6.55989e-014
rhumerus -7.96604 4.44916 -88.6596
rradius 79.1921
rwrist -15.1558
rhand -20.1154 -26.4153
rfingers 7.12502
rthumb 6.22841 -56.3037
lclavicle 2.50469e-014 6.55989e-014
lhumerus 7.78826 -11.5014 77.7419
lradius 69.3444
lwrist 18.1839
lhand -25.4773 -15.1738
lfingers 7.12502
lthumb 1.05061 14.8033
rfemur -46.5673 -21.0532 7.19512
rtibia 65.3246
rfoot -30.1187 -14.9709
rtoes -6.25899
lfemur -58.0711 12.9177 -23.0225
ltibia 53.3825
lfoot -8.9527 0.582313
ltoes -16.7997
